<?xml version="1.0" encoding="UTF-8"?>
<svg width="22px" height="22px" viewBox="0 0 22 22" version="1.1" xmlns="http://www.w3.org/2000/svg" xmlns:xlink="http://www.w3.org/1999/xlink">
    <path d="M17.3663478,2 L4.62352279,2 C3.16488464,2 2,3.16488464 2,4.62352279 L2,17.3764772 C2,18.8351154 3.16488464,20 4.62352279,20 L17.3764772,20 C18.8452448,20 20,18.8452448 20,17.3764772 L20,4.63365222 C20,3.17501407 18.8249859,2 17.3663478,2 L17.3663478,2 Z M16.2419809,13.851435 C16.2419809,14.226224 15.9380979,14.5604952 15.5329207,14.5604952 L10.660664,14.5604952 C10.3567811,15.2290377 9.7186269,15.6848621 8.92853123,15.6848621 C8.13843557,15.6848621 7.50028137,15.2290377 7.19639842,14.5604952 L6.44682048,14.5604952 C6.07203151,14.5604952 5.73776027,14.2566123 5.73776027,13.851435 L5.73776027,13.8210467 C5.73776027,13.4462577 6.04164322,13.1119865 6.44682048,13.1119865 L7.19639842,13.1119865 C7.50028137,12.443444 8.13843557,11.9876196 8.92853123,11.9876196 C9.7186269,11.9876196 10.3567811,12.443444 10.660664,13.1119865 L15.5329207,13.1119865 C15.9077096,13.1119865 16.2419809,13.4563872 16.2419809,13.8210467 L16.2419809,13.851435 Z M16.2419809,8.22960045 C16.2419809,8.60438942 15.9380979,8.93866066 15.5329207,8.93866066 L14.7833427,8.93866066 C14.4794598,9.60720315 13.8413056,10.0630276 13.0512099,10.0630276 C12.2611142,10.0630276 11.62296,9.60720315 11.3190771,8.93866066 L6.45694992,8.93866066 C6.08216095,8.93866066 5.7478897,8.63477772 5.7478897,8.22960045 L5.7478897,8.19921216 C5.7478897,7.82442319 6.05177265,7.49015194 6.45694992,7.49015194 L11.3292065,7.49015194 C11.6330895,6.82160945 12.2712437,6.36578503 13.0613393,6.36578503 C13.851435,6.36578503 14.4895892,6.82160945 14.7934721,7.49015194 L15.5430501,7.49015194 C15.9178391,7.49015194 16.2521103,7.82442319 16.2521103,8.19921216 L16.2521103,8.22960045 L16.2419809,8.22960045 Z"></path>
</svg>