<?xml version="1.0" encoding="UTF-8"?>
<svg width="22px" height="22px" viewBox="0 0 22 22" version="1.1" xmlns="http://www.w3.org/2000/svg" xmlns:xlink="http://www.w3.org/1999/xlink">
  <path d="M20,14.3011053 L14.8504963,11.1638947 L14.8504963,12.9638947 L6.03982867,12.9638947 C5.2046039,12.9459373 4.54029393,12.2575249 4.55211516,11.4222042 C4.5639364,10.5868834 5.24746091,9.91754459 6.08285937,9.92322863 C6.91825783,9.92891267 7.59261084,10.6074905 7.59306412,11.4428947 L7.59306412,12.2585789 L10.0775777,12.2585789 L10.0775777,11.4419474 C10.1120345,9.80091864 9.14996646,8.30223009 7.64357065,7.65030451 C6.13717483,6.99837892 4.38605756,7.32287746 3.21328973,8.47127732 C2.04052189,9.61967719 1.67935471,11.3635737 2.29954618,12.8832899 C2.91973766,14.4030061 4.39793823,15.3962865 6.03935498,15.3962632 L14.8500227,15.3962632 L14.8500227,17.4387895 L20,14.3011053 Z M7.64138068,20 L10.1263679,20 L10.1263679,16.1631579 L7.64138068,16.1631579 L7.64138068,20 Z M11.0244876,20 L13.5099485,20 L13.5099485,16.1631579 L11.025435,16.1631579 L11.0244876,20 Z M11.0244876,12.2448421 L13.5099485,12.2448421 L13.5099485,7.04142107 L15.3739258,7.04142107 L12.1698744,2 L8.96771775,7.04142107 L11.0278034,7.04142107 L11.0278034,12.2448421 L11.0244876,12.2448421 Z" ></path>
</svg>