<svg t="1721634143248" class="icon" viewBox="0 0 1024 1024" version="1.1" xmlns="http://www.w3.org/2000/svg" p-id="38099" width="32" height="32"><path d="M965.4 698.9c-9.1 8.9-15.4 15-22.6 21.9-3.3-1.5-7-2.7-10.2-4.8-39.8-26.1-78.3-22.7-117.5 2.7C771.4 747 724 766.1 671.9 755c-28.8-6.1-58.2-16.3-83.6-31.5-53.2-31.9-103.2-32.9-155.8 0.5-70 44.5-141.8 45.4-212.1 0.5-47.9-30.7-95-37.9-144.5-2.1-7.6-8.6-14.4-16.2-23.4-26.2 19.7-9.4 37.4-17.8 60.2-28.7H20.6c16.1-32.2 30.1-60.4 44.2-88.6 42.8-85.7 86-171.2 128.2-257.3 7.4-15.1 17-21.3 32.5-22.8 129.2-12.5 258.4-25.7 387.6-38 5.9-0.6 15.6 4.1 18.1 9.2 63.3 129.5 125.9 259.4 188.5 389.3 0.6 1.2-0.1 3.2-0.3 6H565.3c-4.4-7.6-6.8-17-12.3-20.3-63.9-37.2-128.4-73.4-194.6-111-19.6 38.2-39.5 74.7-57 112.4-7.5 16.1-16.7 21-32.8 20.4-29-1.2-58.1-0.3-90.7-0.3 34.6 17.5 65.7 34.5 97.7 49.1 40.3 18.4 79.5 12.1 118.4-7.7 27.4-14 55.3-28 84.4-36.9 41.3-12.6 82.5-3.1 117.9 20.4 69 45.6 135 44.3 203.5-1.1 54.6-35.9 110-31.2 165.6 8.6z" p-id="38100" ></path><path d="M95.4 247.4c-4.6-27.5-9.1-54.1-14.1-83.8 209.9-26.7 418.1-53.2 628.5-80 44.8 91.6 89.5 183.1 135.8 277.7 16.7-32.3 31.6-61.3 47.6-92.5 34.4 19.5 68 38.4 103.3 58.4-24.9 49.4-48.4 97-73 143.9-7.5 14.3-8.9 25.4-0.8 40.7 26.3 49.7 50.5 100.6 77.3 154.7-26 0-48.5 1-70.9-0.8-5.4-0.4-11.9-9.3-15-15.8-73-155-146-310-217.8-465.7-10.5-22.8-19.4-32.5-46.8-27.7-178.4 31.2-357.3 59.5-536 88.8-5.3 1-10.7 1.3-18.1 2.1zM74.8 882.1c-7.4-7.9-14-14.8-22.6-24 48.2-31.9 96-41.5 147.3-20.8 17.5 7.1 34.1 16.8 50.6 26.5 51.2 29.9 103 30.8 152.5-1.2 72.5-46.8 142.6-46.8 215.3-0.2 50.1 32.2 103 31.5 155.1 2.3 12.5-7 24.9-14 37.5-20.9 52.8-28.9 102.9-21.1 153.8 13.1-7.3 8.4-13.8 15.9-20.7 24-29.3-15.3-57.2-33-90.3-20.5-15.4 5.8-30.6 13.1-44.7 21.9-74.7 46.5-149.1 46.4-223.2-0.5-49.9-31.6-99.3-32.3-149.2-0.5-73.5 46.9-147.1 47.5-220.4-0.2-46.5-30.1-92.9-32.3-141 1z" p-id="38101" ></path><path d="M53.7 777.3c51.3-34 103.3-41 157.9-14.7 12.8 6.2 25.2 13.6 37.5 20.9 50.9 30.3 103 32 152.5-0.1 73.4-47.5 144-47.2 217.4 0 51.1 32.8 104.8 30.1 157.3 0.1 15.2-8.7 30.4-17.3 46.1-24.8 50.1-23.9 96.2-11.9 141.8 18.6-7.2 8.3-13.4 15.5-19.2 22.1-2.6 0-4.5 0.6-5.6-0.1-44.9-31.4-87.7-25.3-132.2 3.5-72.9 47.1-147.5 46.5-220.9 0-50.7-32.1-100.6-32.9-151.3-0.5-73.6 47.1-147.3 45.9-220.5-1.3-41.3-26.7-83.5-32.9-127-6.2-19.8 12.3-22.9-8.3-33.8-17.5z" p-id="38102" ></path></svg>