<?xml version="1.0" encoding="UTF-8"?>
<svg width="22px" height="22px" viewBox="0 0 22 22" version="1.1" xmlns="http://www.w3.org/2000/svg" xmlns:xlink="http://www.w3.org/1999/xlink">
        <path d="M14.9343668,18.3020171 L7.06708367,18.3020171 C6.60003626,18.3020171 6.22001632,18.6829002 6.22001632,19.1510085 C6.22001632,19.6191168 6.60003626,20 7.06708367,20 L14.9358172,20 C15.4028647,20 15.7828846,19.6191168 15.7828846,19.1510085 C15.7828846,18.6829002 15.4028647,18.3020171 14.9343668,18.3020171 Z M16.6952226,4 L5.3062279,4 C4.03272595,4 3,5.03507178 3,6.31146647 L3,14.9453026 C3,16.2216973 4.03272595,17.256769 5.3062279,17.256769 L16.6937721,17.256769 C17.967274,17.256769 19,16.2216973 19,14.9453026 L19,6.31001272 C19,5.03361803 17.9687245,4 16.6952226,4 L16.6952226,4 Z M16.439942,12.7893876 L13.6434593,12.7893876 C13.4374943,12.7893876 13.2402321,12.7094312 13.0922854,12.5669635 L10.4045871,9.98946029 L9.16154474,12.2951118 C9.02235194,12.5538188 8.75278231,12.7151464 8.45952316,12.7152462 L5.75732028,12.7152462 C5.31638111,12.7152462 4.95956849,12.3576231 4.95956849,11.9156824 C4.95956849,11.4737416 5.31638111,11.1161185 5.75732028,11.1161185 L7.98522346,11.1161185 L9.49950141,8.3060149 C9.61798364,8.08693928 9.83128593,7.9354622 10.0767836,7.8960567 C10.3233614,7.85825913 10.5728402,7.93530801 10.7526969,8.10830456 L13.965461,11.1902599 L16.4413924,11.1902599 C16.8823316,11.1902599 17.2391442,11.547883 17.2391442,11.9898237 C17.2391442,12.4317645 16.8808812,12.7893876 16.439942,12.7893876 L16.439942,12.7893876 Z"></path>
</svg>