<svg width="22px" height="22px" viewBox="0 0 20 20" version="1.1" xmlns="http://www.w3.org/2000/svg" xmlns:xlink="http://www.w3.org/1999/xlink">
                        <path d="M8.02551021,4.42946429 L8.02551021,8.8817842e-16 L4.08683674,8.8817842e-16 C3.50035714,8.8817842e-16 2.9447449,0.311760198 2.63915816,0.808724495 L0.419795924,4.42946429 L8.02551021,4.42946429 Z" id="路径" opacity="0.600000024"></path>
                        <path d="M9.26020408,4.42946429 L16.8659184,4.42946429 L14.6465561,0.811811236 C14.3366839,0.309243953 13.7892922,0.00228444753 13.1988775,8.8817842e-16 L9.26020408,8.8817842e-16 L9.26020408,4.42946429 Z" id="路径" opacity="0.600000024"></path>
                        <path d="M17.2857143,5.66415817 L17.2857143,16.0510204 C17.2857143,16.7331888 16.7331888,17.2857143 16.0510204,17.2857143 L1.23469388,17.2857143 C0.552525504,17.2857143 0,16.7331888 0,16.0510204 L0,5.66415817 L17.2857143,5.66415817 Z M12.7327806,10.0133673 C12.495102,9.76642858 12.1030867,9.7602551 11.8592347,9.99484694 C11.6122959,10.2325255 11.6030357,10.6214541 11.8407143,10.8683929 L12.914898,11.9857908 L9.3065051,11.9857908 C8.96696429,11.9857908 8.68915816,12.2635969 8.68915816,12.6031377 C8.68915816,12.9426786 8.96696429,13.2204847 9.3065051,13.2204847 L12.9118112,13.2204847 L11.8407143,14.3347959 C11.6061224,14.5817347 11.6122959,14.97375 11.8592347,15.2083418 C11.9796173,15.3256377 12.1339541,15.381199 12.2882908,15.381199 C12.448801,15.381199 12.612398,15.3194643 12.7327806,15.1929082 L14.7916326,13.0476275 C14.8255867,13.0136735 14.8533674,12.9766327 14.8780612,12.9334184 L14.8873214,12.914898 C14.9027551,12.8902041 14.9181888,12.8624235 14.9305357,12.8315561 C14.9367092,12.8222959 14.9397959,12.809949 14.9428827,12.797602 C14.9521428,12.7729082 14.9583163,12.7482143 14.9644898,12.7204337 C14.9706632,12.6926531 14.9706632,12.6648725 14.97375,12.6370918 C14.97375,12.6247449 14.9768367,12.6154847 14.9768367,12.6031377 C14.9768367,12.5630102 14.97375,12.5228827 14.9644898,12.4827551 L14.9625606,12.4704082 L14.9583163,12.4580612 C14.9521429,12.4271939 14.9428827,12.3963265 14.9305357,12.3654592 L14.9212755,12.3469388 C14.9089286,12.3160714 14.8934949,12.2852041 14.8749745,12.2574235 C14.8502806,12.2265561 14.8317602,12.1987755 14.8070663,12.1740816 Z M5.97900511,10.7202296 L3.39540817,10.7202296 C3.05586734,10.7202296 2.77806122,10.9980357 2.77806122,11.3375765 C2.77806122,11.6771173 3.05586736,11.9549235 3.39540817,11.9549235 L5.97900511,11.9549235 C6.31995641,11.9549235 6.59635204,11.6785278 6.59635204,11.3375765 C6.59635204,10.9966252 6.31995641,10.7202296 5.97900511,10.7202296 Z M7.78783163,7.73535714 L3.39540817,7.73535714 C3.05586734,7.73535714 2.77806122,8.01316325 2.77806122,8.35270408 C2.77806122,8.6922449 3.05586736,8.97005103 3.39540817,8.97005103 L7.78783163,8.97005103 C8.12878293,8.97005103 8.40517857,8.69365539 8.40517857,8.35270408 C8.40517857,8.01175278 8.12878293,7.73535714 7.78783163,7.73535714 Z" id="形状结合"></path>
</svg>