<?xml version="1.0" encoding="UTF-8"?>
<svg width="22px" height="22px" viewBox="0 0 22 22" version="1.1" xmlns="http://www.w3.org/2000/svg" xmlns:xlink="http://www.w3.org/1999/xlink">
                        <path d="M18.9635414,16.0416666 C18.7667084,15.0798214 18.0911894,14.2856858 17.1733616,13.9371436 C16.2555338,13.5886014 15.2231644,13.7341717 14.4374996,14.3229166 L14.4374996,8.13255208 C14.4372871,7.73764288 14.6404456,7.37045559 14.9751316,7.16084017 C15.3098175,6.95122474 15.7288566,6.92872668 16.0840622,7.10130208 L19.5215622,8.77135415 C19.9163685,8.96316926 20.1669027,9.36366789 20.1666665,9.80260415 L20.1666665,14.8958333 C20.1666665,15.5286596 19.6536593,16.0416666 19.020833,16.0416666 L18.9635414,16.0416666 L18.9635414,16.0416666 Z" id="路径" fill="#1974FF" fill-rule="nonzero" opacity="0.600000024" mask="url(#mask-2)"></path>
                        <path d="M6.41666657,14.8958333 C7.36590597,14.8958333 8.13541654,15.6653439 8.13541654,16.6145833 C8.13541654,17.5638227 7.36590597,18.3333333 6.41666657,18.3333333 C5.46742717,18.3333333 4.6979166,17.5638227 4.6979166,16.6145833 C4.6979166,15.6653439 5.46742717,14.8958333 6.41666657,14.8958333 Z M12.1458332,4.58333333 C12.7786594,4.58333333 13.2916665,5.09634039 13.2916665,5.72916665 L13.2916665,14.8958333 C13.2916665,15.5286596 12.7786594,16.0416666 12.1458332,16.0416666 L9.22395821,16.0416666 C8.95055703,14.7086519 7.77742981,13.7517127 6.41666658,13.7517127 C5.05590336,13.7517127 3.88277613,14.7086519 3.60937496,16.0416666 L2.97916663,16.0416666 C2.34634038,16.0416666 1.83333333,15.5286596 1.83333333,14.8958333 L1.83333333,5.72916665 C1.83333333,5.09634039 2.34634038,4.58333333 2.97916663,4.58333333 L12.1458332,4.58333333 Z M16.1562497,18.3333333 C17.1054891,18.3333333 17.8749997,17.5638227 17.8749997,16.6145833 C17.8749997,15.6653439 17.1054891,14.8958333 16.1562497,14.8958333 C15.2070103,14.8958333 14.4374998,15.6653439 14.4374998,16.6145833 C14.4374998,17.5638227 15.2070103,18.3333333 16.1562497,18.3333333 Z"></path>
</svg>