<?xml version="1.0" encoding="UTF-8"?>
<svg width="22px" height="22px" viewBox="0 0 22 22" version="1.1" xmlns="http://www.w3.org/2000/svg" xmlns:xlink="http://www.w3.org/1999/xlink">
                                <path d="M11.4943082,7.45484691 C11.7951745,7.64636379 11.9571206,7.9945554 11.9093333,8.34717011 L17.4166667,8.34717011 C17.6597818,8.34717011 17.8929395,8.44343012 18.0648479,8.61477404 C18.2367562,8.78611796 18.3333333,9.01851019 18.3333333,9.26082708 L18.3333333,14.6696764 C18.3333333,14.9119933 18.2367562,15.1443855 18.0648479,15.3157294 C17.8929395,15.4870733 17.6597818,15.5833333 17.4166667,15.5833333 L0.916666668,15.5833333 C0.410405647,15.5833333 0,15.1742752 0,14.6696764 L0,9.26082708 C0,8.75622827 0.410405647,8.34717011 0.916666668,8.34717011 L10.0925,8.34717011 C10.0447127,7.9945554 10.2066588,7.64636379 10.5075251,7.45484691 C10.8083913,7.26333002 11.193442,7.26333002 11.4943082,7.45484691 Z M3.66666667,10.9638837 L1.83333334,10.9638837 L1.83333334,12.7911976 L3.66666667,12.7911976 L3.66666667,10.9638837 Z M7.33333333,10.9638837 L5.49999999,10.9638837 L5.49999999,12.7911976 L7.33333333,12.7911976 L7.33333333,10.9638837 Z"></path>
                                <path d="M11,0 C14.6666667,0 18.3333333,2.83233662 18.3333333,7.30925578 L16.5,7.30925578 C16.5,3.8857831 13.75,1.82731395 11,1.82731395 C8.25000001,1.82731395 5.50000001,3.88578312 5.49999999,7.30925578 L3.66666667,7.30925578 C3.66666667,2.83233661 7.33333334,0 11,0 Z M11,3.6546279 C12.8333333,3.6546279 14.6666667,5.08906935 14.6666667,7.30925578 L12.8333333,7.30925578 C12.8333333,6.14342949 11.9166667,5.48194183 11,5.48194183 C10.0833333,5.48194183 9.16666666,6.14342949 9.16666666,7.30925578 L7.33333333,7.30925578 C7.33333333,5.08906934 9.16666666,3.6546279 11,3.6546279 Z" opacity="0.600000024"></path>
</svg>