<?xml version="1.0" encoding="UTF-8"?>
<svg width="22px" height="22px" viewBox="0 0 22 22" version="1.1" xmlns="http://www.w3.org/2000/svg" xmlns:xlink="http://www.w3.org/1999/xlink">
                                <path d="M0,1.22049716 C0,0.545634011 0.555683767,0 1.22049405,0 L6.16564882,0 C6.83907437,0 7.38470699,0.555685184 7.38470699,1.22049716 L7.38470699,6.16566455 C7.38470699,6.83909182 6.82902323,7.38472583 6.16421295,7.38472583 L1.22049405,7.38472583 C0.547415051,7.38236274 0.00236308903,6.83730939 0,6.16422867 L0,1.22049716 Z" id="路径"></path>
                                <path d="M8.61521137,1.22049716 C8.61521137,0.545634011 9.17089513,0 9.83426953,0 L14.7808602,0 C15.4542857,0 15.9999184,0.555685184 15.9999184,1.22049716 L15.9999184,6.16566455 C15.9999184,6.83909182 15.4442346,7.38472583 14.7808602,7.38472583 L9.83426953,7.38472583 C9.16175135,7.38157626 8.61756927,6.83675181 8.61521137,6.16422867 L8.61521137,1.22049716 Z" id="路径"></path>
                                <path d="M9.83426953,9.29255861 L14.7808602,9.29255861 C15.1060554,9.29293017 15.4176557,9.42306536 15.6465228,9.65408961 C15.8753898,9.88511385 16.0025966,10.1979217 15.9999598,10.5231069 C15.9999598,11.1982592 15.4559813,11.7473528 14.7808602,11.7536552 L9.83426953,11.7536552 C9.50907432,11.7532837 9.19747403,11.6231485 8.96860696,11.3921243 C8.73973988,11.1611 8.61253308,10.8482922 8.61516991,10.5231069 C8.61516991,9.84393617 9.17089513,9.29255861 9.83426953,9.29255861 Z M9.83426953,13.2870209 L14.7808602,13.2870209 C15.1060554,13.2873924 15.4176557,13.4175276 15.6465228,13.6485519 C15.8753898,13.8795761 16.0025966,14.192384 15.9999598,14.5175692 C15.9999598,15.1927215 15.4559813,15.741815 14.7808602,15.7481175 L9.83426953,15.7481175 C9.50907432,15.747746 9.19747403,15.6176108 8.96860696,15.3865865 C8.73973988,15.1555623 8.61253308,14.8427544 8.61516991,14.5175692 C8.61516991,13.8369626 9.17089513,13.2870209 9.83426953,13.2870209 Z"></path>
                                <path d="M1.22049405,8.61527417 L6.16564882,8.61527417 C6.83907437,8.61527417 7.38470699,9.17095935 7.38470699,9.83433545 L7.38470699,14.7809387 C7.38155742,15.4534586 6.83673437,15.9976421 6.16421295,16 L1.22049405,16 C0.54797262,15.9976421 0.00314956819,15.4534586 0,14.7809387 L0,9.83433545 C0,9.16090818 0.555683767,8.61527417 1.22049405,8.61527417 Z" id="路径"></path>

</svg>