<?xml version="1.0" encoding="UTF-8"?>
<svg width="14px" height="14px" viewBox="0 0 14 14" version="1.1" xmlns="http://www.w3.org/2000/svg" xmlns:xlink="http://www.w3.org/1999/xlink">
    <defs>
        <rect id="path-1" x="0" y="0" width="14" height="14"></rect>
    </defs>
    <g id="应急资源" stroke="none" stroke-width="1" fill="none" fill-rule="evenodd">
        <g id="2.2应急-仓库物资管理" transform="translate(-372.000000, -284.000000)">
            <g id="编组-5" transform="translate(256.000000, 258.000000)">
                <g id="编组-14备份" transform="translate(16.000000, 17.000000)">
                    <g id="组件/按钮/32备份-5" transform="translate(87.000000, 0.000000)">
                        <g id="编组" transform="translate(13.000000, 9.000000)">
                            <mask id="mask-2" fill="white">
                                <use xlink:href="#path-1"></use>
                            </mask>
                            <g id="蒙版"></g>
                            <path d="M12,6.76842105 C12.3313708,6.76842105 12.6,7.0370502 12.6,7.36842105 C12.6,10.1754665 10.6313617,12.6 7,12.6 C3.36863832,12.6 1.4,10.1754665 1.4,7.36842105 C1.4,7.0370502 1.66862915,6.76842105 2,6.76842105 C2.33137085,6.76842105 2.6,7.0370502 2.6,7.36842105 C2.6,9.56137562 4.09290014,11.4 7,11.4 C9.90709986,11.4 11.4,9.56137562 11.4,7.36842105 C11.4,7.0370502 11.6686292,6.76842105 12,6.76842105 Z M7.43291977,0.584571939 L10.7662531,4.05825615 C10.9956877,4.29735114 10.9878564,4.6771694 10.7487614,4.90660398 C10.5096664,5.13603856 10.1298481,5.12820726 9.90041356,4.88911227 L7.602,2.494 L7.60216667,9.10529211 C7.60216667,9.43666296 7.33353752,9.70529211 7.00216667,9.70529211 C6.67079582,9.70529211 6.40216667,9.43666296 6.40216667,9.10529211 L6.402,2.488 L4.09958644,4.88911227 C3.89564458,5.10164115 3.57288106,5.13144316 3.33574958,4.97430278 L3.25123861,4.90660398 C3.01214362,4.6771694 3.00431232,4.29735114 3.2337469,4.05825615 L6.56708023,0.584571939 C6.80323288,0.33847602 7.19676712,0.33847602 7.43291977,0.584571939 Z" id="形状结合" fill="#1974FF" fill-rule="nonzero" mask="url(#mask-2)"></path>
                        </g>
                    </g>
                </g>
            </g>
        </g>
    </g>
</svg>