<svg t="1721633971214" class="icon" viewBox="0 0 1024 1024" version="1.1" xmlns="http://www.w3.org/2000/svg" p-id="33115" width="32" height="32"><path d="M819.2 221.866667c0-13.653333-11.946667-25.6-25.6-25.6-5.12 0-8.533333 1.706667-13.653333 3.413333L192.853333 508.586667c-8.533333 3.413333-13.653333 13.653333-13.653333 23.893333s5.12 18.773333 13.653333 23.893333l151.893334 83.626667c3.413333 1.706667 8.533333 3.413333 11.946666 3.413333 10.24 0 18.773333-5.12 23.893334-13.653333 6.826667-11.946667 1.706667-29.013333-11.946667-35.84l-105.813333-59.733333 426.666666-226.986667-267.946666 324.266667c-3.413333 5.12-6.826667 11.946667-6.826667 17.066666v160.426667c0 13.653333 11.946667 25.6 25.6 25.6s25.6-11.946667 25.6-25.6v-151.893333L750.933333 310.613333 696.32 750.933333l-160.426667-76.8c-3.413333-1.706667-6.826667-3.413333-11.946666-3.413333-10.24 0-18.773333 5.12-23.893334 15.36-3.413333 6.826667-3.413333 13.653333-1.706666 20.48 1.706667 6.826667 6.826667 11.946667 13.653333 15.36l192.853333 90.453333c3.413333 1.706667 6.826667 3.413333 11.946667 3.413334 3.413333 0 8.533333-1.706667 11.946667-3.413334 6.826667-3.413333 11.946667-11.946667 13.653333-18.773333L819.2 225.28V221.866667z" p-id="33116" ></path></svg>