<svg t="1721631228575" class="icon" viewBox="0 0 1024 1024" version="1.1" xmlns="http://www.w3.org/2000/svg" p-id="4308" width="16" height="16"><path d="M789.561 852.34c-98.503 0-168.845-85.19-255.58-85.19-112.86 0-196.178 85.19-276.876 85.19-98.472 0-234.285-106.495-234.285-106.495-13.876-12.433-24.058-41.198-19.73-47.952 8.422-12.996 15.657-31.036 37.791-18.634 0 0 131.955 109.156 216.245 109.156 80.84 0 152.35-85.19 276.875-85.19 85.487 0 162.705 85.19 255.58 85.19 113.649 0 191.686-85.19 191.686-85.19 17.324-12.433 38.937-1.76 42.242 13.303 2.046 9.527-20.947 50.582-20.947 50.582s-109.463 85.23-213.001 85.23z m63.895-276.875c0 65.042-83.113 85.19-106.495 85.19-122.797 0-116.145-85.19-234.275-85.19s-174.443 85.19-234.327 85.19-106.423-29.91-106.423-85.19v-170.39H108.02L512.696 0.409 704.36 192.095V85.599h85.2v191.716l127.79 127.76h-63.895zM512.696 85.6L214.505 383.74H235.8v170.38s6.672 42.6 63.895 42.6c30.034 0 99.834-85.19 212.98-85.19 71.918 0 148.963 85.19 212.98 85.19 28.827 0 63.896-21.96 63.896-42.6V383.74h21.295zM40.85 852.361c11.983 0 8.013 10.151 23.536 23.772 31.59 27.578 102.638 82.703 192.72 82.703 80.84 0 152.349-85.19 276.875-85.19 85.486 0 162.705 85.19 255.58 85.19 113.648 0 191.685-85.19 191.685-85.19 17.325-12.443 38.937 0.91 42.242 15.994 1.975 9.046-16.639 57.97-42.242 69.196 0 0-88.127 63.895-191.685 63.895-98.503 0-168.845-85.19-255.58-85.19-112.86 0-196.178 85.19-276.876 85.19-98.421 0-234.285-85.19-234.285-85.19-13.876-12.474-24.058-59.833-19.73-66.545C13.11 855.42 28.878 852.36 40.85 852.36z" p-id="4309"></path></svg>