<svg t="1721632948003" class="icon" viewBox="0 0 1024 1024" version="1.1" xmlns="http://www.w3.org/2000/svg" p-id="8879" width="32" height="32"><path d="M723.267129 182.044444a237.226667 237.226667 0 0 1 164.977778 22.755556 248.035556 248.035556 0 0 1 130.844444 261.688889 245.76 245.76 0 0 1-170.666667 199.111111 193.422222 193.422222 0 0 1-79.644444 11.377778H251.089351a245.76 245.76 0 0 1-238.933333-170.666667A248.604444 248.604444 0 0 1 171.444907 193.422222c11.377778-5.688889 11.377778-5.688889 17.066666-17.066666a273.066667 273.066667 0 0 1 233.244445-170.666667 294.684444 294.684444 0 0 1 295.822222 170.666667 5.688889 5.688889 0 0 0 5.688889 5.688888z m-642.844445 739.555556V853.333333a31.857778 31.857778 0 0 1 28.444445-34.133333c17.066667 0 28.444444 11.377778 28.444444 34.133333v136.533334a31.857778 31.857778 0 0 1-28.444444 34.133333c-17.066667 0-28.444444-11.377778-28.444445-34.133333z m381.155556 0v68.266667a26.737778 26.737778 0 0 1-28.444444 28.444444 31.288889 31.288889 0 0 1-34.133334-22.755555V853.333333a31.857778 31.857778 0 0 1 28.444445-34.133333c17.066667 0 28.444444 11.377778 28.444444 34.133333a277.048889 277.048889 0 0 1 5.688889 68.266667z m318.577778 0v68.266667a31.857778 31.857778 0 0 1-28.444445 34.133333c-17.066667 0-28.444444-11.377778-28.444444-34.133333V853.333333a31.857778 31.857778 0 0 1 28.444444-34.133333c17.066667 0 28.444444 11.377778 28.444445 34.133333z m-477.866667-102.4v45.511111a31.857778 31.857778 0 0 1-28.444444 34.133333c-17.066667 0-28.444444-11.377778-28.444445-34.133333v-91.022222a31.857778 31.857778 0 0 1 28.444445-34.133333c17.066667 0 28.444444 11.377778 28.444444 34.133333z m318.577778 0v45.511111a31.857778 31.857778 0 0 1-28.444445 34.133333c-17.066667 0-28.444444-11.377778-28.444444-34.133333v-96.711111a31.857778 31.857778 0 0 1 28.444444-34.133333c17.066667 0 28.444444 11.377778 28.444445 34.133333z m324.266667 0v51.2a31.857778 31.857778 0 0 1-28.444445 34.133333c-17.066667 0-28.444444-11.377778-28.444444-34.133333v-96.711111a31.857778 31.857778 0 0 1 28.444444-34.133333 26.737778 26.737778 0 0 1 28.444445 28.444444z"  p-id="8880"></path></svg>