<svg t="1721633917082" class="icon" viewBox="0 0 1024 1024" version="1.1" xmlns="http://www.w3.org/2000/svg" p-id="31898" width="32" height="32"><path d="M432.064 28.448h97.216v93.376h-97.216V28.48zM108 196.544l66.976-64.32 66.976 64.32-66.976 66.432-66.976-66.432zM0 443.52h97.216v93.376H0V443.52z m719.392-246.976l66.976-64.32 66.944 64.32-66.944 66.432-66.976-66.432z m19.424 246.976c-157.664 0-285.152 124.512-285.152 276 0 151.52 127.488 276.032 285.152 276.032 157.696 0 285.184-124.512 285.184-276.032 0-151.488-127.488-276-285.184-276z m82.112 334.144h-105.856c-17.28 0-32.384-14.528-32.384-31.136V644.8c0-16.64 15.072-31.136 32.384-31.136 17.28 0 32.384 14.528 32.384 31.136v70.56h73.472c17.28 0 32.384 14.528 32.384 31.136s-12.96 31.136-32.384 31.136z m-421.28-62.272c0-170.176 142.592-309.248 319.744-309.248a318.72 318.72 0 0 1 90.72 12.48c-32.384-145.28-168.48-253.216-328.352-253.216-185.824 2.08-337.024 147.36-337.024 325.824v369.44H0v93.376h514.144c-71.296-58.112-114.496-143.2-114.496-238.656z" p-id="31899" ></path></svg>