<svg width="22px" height="22px" viewBox="0 0 20 20" version="1.1" xmlns="http://www.w3.org/2000/svg" xmlns:xlink="http://www.w3.org/1999/xlink">
                <path d="M15.4261626,18.0897692 L6.57546913,18.0897692 C6.05004079,18.0897692 5.62251836,18.5182628 5.62251836,19.0448846 C5.62251836,19.5715065 6.05004079,20 6.57546913,20 L15.4277944,20 C15.9532227,20 16.3807452,19.5715065 16.3807452,19.0448846 C16.3807452,18.5182628 15.9532227,18.0897692 15.4261626,18.0897692 Z" id="路径" fill="#3C496A" fill-rule="nonzero" opacity="0.600000024"></path>
                <path d="M17.4071254,2 C18.8398151,2 20,3.16282028 20,4.59876431 L20,14.3134654 C20,15.7494094 18.8381833,16.9138652 17.4054936,16.9138652 L4.59450639,16.9138652 C3.1618167,16.9138652 2,15.7494094 2,14.3134654 L2,4.60039978 C2,3.16445575 3.1618167,2 4.59450639,2 Z M10.9999998,6.5 C7.78903051,6.5 5.375,8.75777955 5.375,9.87318561 C5.375,10.9887537 7.77867038,13.25 10.9999888,13.25 C14.3054517,13.25 16.6249998,10.9509107 16.6249998,9.87318561 C16.6257906,8.75780115 14.3314344,6.5 10.9999998,6.5 Z M11.0049546,7.11594166 C12.50246,7.11594166 13.716089,8.35128095 13.716089,9.8750108 C13.716089,11.3987514 12.50246,12.6340799 11.0049437,12.6340799 C9.50787779,12.6340799 8.29429271,11.3987622 8.29429271,9.8750108 C8.29429271,8.35128095 9.50788878,7.11594166 11.0049546,7.11594166 Z M10.9999998,8.11355287 C10.0466264,8.11355287 9.27375869,8.90007944 9.27375869,9.87041003 C9.27375869,10.8406326 10.0466264,11.6273104 10.9999998,11.6273104 C11.9533732,11.6273104 12.7259223,10.8406326 12.7259223,9.87041003 C12.7259223,8.90006864 11.9533622,8.11355287 10.9999998,8.11355287 Z"></path>
</svg>