<?xml version="1.0" encoding="UTF-8"?>
<svg width="22px" height="22px" viewBox="0 0 22 22" version="1.1" xmlns="http://www.w3.org/2000/svg" xmlns:xlink="http://www.w3.org/1999/xlink">
    <path d="M5.8888889,3.80000001 L5.8888889,6.05 C5.8888889,6.79558441 6.48584256,7.4 7.22222223,7.4 L14.7777778,7.4 C15.5141574,7.4 16.1111111,6.79558441 16.1111111,6.05 L16.1111111,3.80000001 L18.1173333,3.80000001 C18.6044444,3.80000001 19,4.20050002 19,4.69370001 L19,19.1063 C18.99951,19.5996712 18.6046136,19.9995039 18.1173333,20 L3.88266667,20 C3.39538643,19.9995039 3.00048998,19.5996712 3,19.1063 L3,4.69370001 C3,4.2005 3.39555556,3.80000001 3.88266667,3.80000001 L5.8888889,3.80000001 Z"></path>
    <path d="M8.33333333,2 L13.6666667,2 C14.1575864,2 14.5555556,2.40294373 14.5555556,2.90000001 L14.5555556,5.15000001 C14.5555556,5.64705628 14.1575864,6.05 13.6666667,6.05 L8.33333333,6.05 C7.84241356,6.05 7.44444444,5.64705628 7.44444444,5.15000001 L7.44444444,2.90000001 C7.44444444,2.40294373 7.84241355,2 8.33333333,2 L8.33333333,2 Z" ></path>
</svg>