<?xml version="1.0" encoding="UTF-8"?>
<svg width="22px" height="22px" viewBox="0 0 22 22" version="1.1" xmlns="http://www.w3.org/2000/svg" xmlns:xlink="http://www.w3.org/1999/xlink">
                                <path d="M15.9997165,5.37719899 L15.9997165,14.5164811 C16.0041763,14.725253 15.9559465,14.9317813 15.8594837,15.1169818 C15.7776028,15.2741662 15.6731341,15.4181734 15.5498422,15.5461798 C15.4073489,15.6965756 15.2357023,15.8163521 15.0453805,15.8981975 C14.8806775,15.9650244 14.7037395,15.9999263 14.5258603,15.9999263 L1.36562285,15.9999263 C0.994719921,16.0038545 0.63945402,15.8506592 0.387757831,15.5781814 C0.144747169,15.3202035 0.00651154974,14.9809663 0,14.6266043 L0,5.37719899 L1.4747974,0.800969365 C1.57386537,0.652026315 1.69365623,0.517965538 1.8305558,0.402831745 C2.06961038,0.167525813 2.44230966,0.035754508 2.94771247,0.00375289119 L13.0501217,0.00375289119 C13.1028267,-0.0169540302 13.3230581,0.0479903977 13.7098748,0.19952741 C14.0976326,0.350123207 14.3686866,0.702140871 14.5249191,1.25369797 L15.9997165,5.37719899 Z M14.0750448,4.23737708 L13.1592963,1.48900388 L2.73124573,1.48900388 L1.92373062,4.23737708 L14.0750448,4.23737708 Z M11.0407456,11.1177223 C11.4454443,10.6395807 11.4454443,9.94025148 11.0407456,9.46116862 C10.8173262,9.2493908 10.5193404,9.13438279 10.2115838,9.14115257 L5.67989937,9.14115257 C5.37217857,9.13458736 5.07426781,9.2495664 4.85073758,9.46116862 C4.50240602,9.78586997 4.3939968,10.2936053 4.57933822,10.7322695 C4.76467964,11.1709336 5.20429371,11.4470904 5.67989937,11.42362 L10.2115838,11.42362 C10.5184019,11.4396208 10.8176907,11.3294977 11.0407456,11.1186636 L11.0407456,11.1177223 Z"></path>
</svg>