<svg t="1721632823133" class="icon" viewBox="0 0 1024 1024" version="1.1" xmlns="http://www.w3.org/2000/svg" p-id="5765" width="32" height="32"><path d="M180.565333 467.968c13.312 13.312 34.816 13.312 48.128 0l44.373334-44.373333 44.032 44.032c13.312 13.312 34.816 13.312 48.128 0l44.373333-44.032 44.032 44.032c6.826667 6.826667 15.36 10.24 24.234667 10.24s17.408-3.413333 24.234666-9.898667l68.266667-68.266667a33.9968 33.9968 0 1 0-48.128-48.128L477.866667 395.605333l-44.032-44.032a33.9968 33.9968 0 0 0-48.128 0L341.333333 395.605333 297.301333 351.573333a33.9968 33.9968 0 0 0-48.128 0L204.8 395.605333 160.768 351.573333a33.9968 33.9968 0 1 0-48.128 48.128l67.925333 68.266667z m0 204.8c13.312 13.312 34.816 13.312 48.128 0l44.373334-44.373333 44.032 44.032c6.826667 6.826667 15.36 10.24 24.234666 10.24s17.408-3.413333 24.234667-9.898667l68.266667-68.266667a33.9968 33.9968 0 1 0-48.128-48.128L341.333333 600.405333 297.301333 556.373333a33.9968 33.9968 0 0 0-48.128 0L204.8 600.405333 160.768 556.373333a33.9968 33.9968 0 1 0-48.128 48.128l67.925333 68.266667zM989.866667 238.933333V170.666667h-68.266667V102.4c0-18.773333-15.36-34.133333-34.133333-34.133333h-91.477334c-18.432 0-33.792 15.018667-34.133333 33.450666C754.346667 491.52 443.050667 808.618667 68.266667 808.618667c-18.773333 0-34.133333 15.36-34.133334 34.133333V921.6c0 18.773333 15.36 34.133333 34.133334 34.133333h921.6v-68.266666h-68.266667v-170.666667h68.266667v-68.266667h-68.266667v-170.666666h68.266667v-68.266667h-68.266667V238.933333h68.266667z m-136.533334 648.533334H102.4v-11.264C488.106667 858.112 804.522667 536.234667 828.757333 136.533333H853.333333v750.933334z"  p-id="5766"></path></svg>