<svg t="1721633011079" class="icon" viewBox="0 0 1024 1024" version="1.1" xmlns="http://www.w3.org/2000/svg" p-id="10064" width="32" height="32"><path d="M508.279467 614.2976a69.7344 69.7344 0 0 1-43.776-15.36l-25.7024-20.48a27.460267 27.460267 0 0 0-17.117867-6.0416c-6.1952 0-12.2368 2.133333-17.186133 6.0416l-25.8048 20.48a69.973333 69.973333 0 0 1-87.466667 0l-25.770667-20.48a27.426133 27.426133 0 0 0-17.117866-6.0416c-6.212267 0-12.2368 2.133333-17.186134 6.058667L197.461333 605.2352a21.1968 21.1968 0 0 1-13.243733 4.676267 21.504 21.504 0 0 1-17.544533-9.130667c-7.3216-10.120533-5.410133-24.593067 4.2496-32.256l33.723733-26.794667a69.973333 69.973333 0 0 1 87.466667 0l25.770666 20.48a27.648 27.648 0 0 0 34.304 0l25.8048-20.48a69.444267 69.444267 0 0 1 43.6736-15.36c15.752533 0 31.300267 5.461333 43.776 15.36l25.8048 20.48a27.648 27.648 0 0 0 34.304 0l25.787734-20.48c12.475733-9.898667 28.023467-15.36 43.776-15.36 15.735467 0 31.249067 5.461333 43.6736 15.36l25.8048 20.48c4.846933 3.908267 10.922667 6.058667 17.117866 6.058667 6.1952 0 12.219733-2.133333 17.169067-6.058667l25.8048-20.48a69.9904 69.9904 0 0 1 87.466667 0l25.787733 20.48c4.676267 3.6864 7.7312 9.1648 8.4992 15.240534 0.802133 6.0416-0.750933 12.1856-4.317867 17.032533a21.504 21.504 0 0 1-17.544533 9.147733c-4.778667 0-9.454933-1.6384-13.2608-4.676266l-25.8048-20.48a27.409067 27.409067 0 0 0-17.1008-6.058667 27.648 27.648 0 0 0-17.169067 6.058667l-25.821866 20.48a69.973333 69.973333 0 0 1-87.4496 0l-25.8048-20.48a27.511467 27.511467 0 0 0-34.269867-0.017067l-25.821867 20.497067a69.802667 69.802667 0 0 1-43.776 15.342933z m-8.6016 119.466667a69.717333 69.717333 0 0 1-43.776-15.342934l-25.7024-20.48a27.409067 27.409067 0 0 0-17.117867-6.058666c-6.1952 0-12.2368 2.133333-17.169067 6.058666l-25.821866 20.48a70.007467 70.007467 0 0 1-87.4496 0l-25.8048-20.48a27.392 27.392 0 0 0-17.1008-6.058666c-6.212267 0-12.2368 2.133333-17.186134 6.058666l-33.706666 26.760534a21.1456 21.1456 0 0 1-13.243734 4.676266c-6.9632 0-13.346133-3.328-17.544533-9.130666-7.338667-10.120533-5.410133-24.610133 4.266667-32.290134l33.6896-26.760533a69.9904 69.9904 0 0 1 87.466666 0l25.787734 20.48c4.864 3.874133 10.9568 5.9904 17.152 5.9904 6.178133 0 12.288-2.116267 17.134933-5.973333l25.8048-20.48c12.424533-9.915733 27.938133-15.377067 43.690667-15.377067s31.2832 5.461333 43.776 15.36l25.8048 20.48c4.864 3.874133 10.939733 5.9904 17.134933 5.9904s12.288-2.116267 17.152-5.973333l25.8048-20.48c12.458667-9.915733 28.023467-15.377067 43.776-15.377067 15.735467 0 31.232 5.461333 43.6736 15.36l25.8048 20.48c4.864 3.908267 10.922667 6.058667 17.117867 6.058667 6.1952 0 12.219733-2.133333 17.169066-6.058667l25.8048-20.48a69.973333 69.973333 0 0 1 87.466667 0.017067l25.787733 20.48c4.676267 3.669333 7.7312 9.1648 8.4992 15.223466 0.802133 6.0928-0.733867 12.151467-4.317866 17.0496a21.504 21.504 0 0 1-17.544534 9.147734c-4.795733 0-9.454933-1.6384-13.2608-4.676267l-25.8048-20.48a27.374933 27.374933 0 0 0-17.1008-6.075733c-6.212267 0-12.253867 2.133333-17.186133 6.058666l-25.821867 20.48a69.973333 69.973333 0 0 1-87.4496 0l-25.8048-20.48a27.5456 27.5456 0 0 0-34.2528 0l-25.821866 20.497067a69.8368 69.8368 0 0 1-43.776 15.325867z m0 119.569066a69.717333 69.717333 0 0 1-43.776-15.342933l-25.7024-20.48a27.409067 27.409067 0 0 0-17.117867-6.058667c-6.1952 0-12.2368 2.133333-17.169067 6.058667l-25.821866 20.48a70.007467 70.007467 0 0 1-87.4496 0l-25.8048-20.48a27.392 27.392 0 0 0-17.1008-6.058667c-6.212267 0-12.2368 2.133333-17.186134 6.058667l-33.706666 26.760533a21.1456 21.1456 0 0 1-13.243734 4.676267c-6.9632 0-13.346133-3.328-17.544533-9.130667-7.338667-10.120533-5.410133-24.610133 4.266667-32.290133l33.6896-26.760533a69.9904 69.9904 0 0 1 87.466666 0l25.787734 20.48c4.864 3.874133 10.9568 5.9904 17.152 5.9904 6.178133 0 12.288-2.116267 17.134933-5.973334l25.8048-20.48c12.424533-9.915733 27.938133-15.377067 43.690667-15.377066s31.2832 5.461333 43.776 15.36l25.8048 20.48c4.864 3.874133 10.939733 5.9904 17.134933 5.9904s12.288-2.116267 17.152-5.973334l25.8048-20.48c12.458667-9.915733 28.023467-15.377067 43.776-15.377066 15.735467 0 31.232 5.461333 43.6736 15.36l25.8048 20.48c4.864 3.908267 10.922667 6.058667 17.117867 6.058666 6.1952 0 12.219733-2.133333 17.169066-6.058666l25.8048-20.48a69.973333 69.973333 0 0 1 87.466667 0.017066l25.787733 20.48c4.676267 3.669333 7.7312 9.1648 8.4992 15.223467 0.802133 6.0928-0.733867 12.151467-4.317866 17.0496a21.504 21.504 0 0 1-17.544534 9.147733c-4.795733 0-9.454933-1.6384-13.2608-4.676266l-25.8048-20.48a27.374933 27.374933 0 0 0-17.1008-6.075734c-6.212267 0-12.253867 2.133333-17.186133 6.058667l-25.821867 20.48a69.973333 69.973333 0 0 1-87.4496 0l-25.8048-20.48a27.5456 27.5456 0 0 0-34.2528 0l-25.821866 20.497067a69.8368 69.8368 0 0 1-43.776 15.325866zM851.541333 320.375467L512.648533 189.610667c-15.274667-5.905067-32.187733 2.645333-37.307733 18.858666l-114.005333 361.693867c19.712-17.288533 38.536533-26.709333 57.2928-28.672l85.4528 49.7664 84.002133-26.8288 124.791467 15.104c15.172267 1.9968 79.1552-36.625067 93.252266-31.402667l62.685867-189.525333c5.12-15.530667-2.56-32.529067-17.271467-38.229333z m-287.7952 147.285333l-60.347733-23.296 15.36-43.7248 60.347733 23.296-15.36 43.7248z m27.972267-81.6128l-60.3648-23.296 15.36-43.707733 60.3648 23.296-15.36 43.707733z m100.283733 127.266133l-60.330666-23.278933 15.36-43.7248 60.330666 23.296-15.36 43.707733z m28.637867-77.533866l-60.347733-23.296 15.36-43.707734 60.347733 23.296-15.36 43.690667z" p-id="10065"></path></svg>