<svg t="1721631884242" class="icon" viewBox="0 0 1024 1024" version="1.1" xmlns="http://www.w3.org/2000/svg" p-id="2713" width="32" height="32"><path d="M753.872271 671.713627a242.427661 242.427661 0 0 1-121.370034-32.325424c-43.146847 23.63878-80.705085 32.325424-135.975051 32.325424-58.463458 0-112.666034-16.193085-164.994169-49.360271a185.396068 185.396068 0 0 1-116.245695 39.688678C112.123661 662.046373 28.20339 579.045966 28.20339 477.045153A185.708475 185.708475 0 0 1 174.210169 296.612881c21.851119-155.830237 156.368271-270.605017 322.317017-270.605017a329.077153 329.077153 0 0 1 287.110509 169.13356c119.395797 14.574644 212.176271 115.416949 212.176271 237.342373-0.017356 131.909424-108.548339 239.229831-241.941695 239.22983zM317.656949 919.686508a79.156068 79.156068 0 0 1-158.303457 0c0-60.264136 73.376542-144.271186 79.151728-186.671728 5.115661 43.411525 79.151729 123.721763 79.151729 186.671728z m272.64 0a79.156068 79.156068 0 0 1-158.303457 0c0-60.264136 73.359186-144.271186 79.151728-186.671728 5.098305 43.411525 79.151729 123.721763 79.151729 186.671728z m272.626983 0a79.151729 79.151729 0 0 1-158.29044 0c0-60.264136 73.328814-144.271186 79.134372-186.671728 5.115661 43.411525 79.156068 123.721763 79.156068 186.671728z"  p-id="2714"></path></svg>