<?xml version="1.0" encoding="UTF-8"?>
<svg width="22px" height="22px" viewBox="0 0 22 22" version="1.1" xmlns="http://www.w3.org/2000/svg" xmlns:xlink="http://www.w3.org/1999/xlink">
                                <path d="M18.3333333,7.74064128 L18.3333333,9.98158095 C18.3333333,10.7961968 17.9302083,11.5093587 17.2251823,11.8149143 L17.2251823,17.4166667 L15.6135677,17.4166667 L14.9082465,14.2593587 L14.3038542,17.518419 L12.7928733,17.518419 L12.7928733,12.5277778 C13.3972656,11.9166667 13.8003906,11 13.8003906,10.0833333 L13.8003906,7.5371365 C13.8022527,6.89083352 13.6279543,6.25650778 13.2966319,5.70380316 C13.4981944,5.70380316 13.5988281,5.60175238 13.8003906,5.60175238 L16.2179601,5.60175238 C17.4279253,5.70380316 18.3333333,6.62046983 18.3333333,7.74064128 L18.3333333,7.74064128 Z" id="路径" opacity="0.600000024"></path>
                                <path d="M14.9082465,0.814914285 C16.1182117,0.814914285 17.0236198,1.83333333 17.0236198,3.05555556 C17.0236198,4.27777779 16.0163976,5.29619684 14.9082465,5.29619684 C13.6997569,5.29619684 12.7928733,4.27777779 12.7928733,3.05555556 C12.7928733,1.83333333 13.8003906,0.814914285 14.9082465,0.814914285 Z" ></path>
                                <path d="M3.42508679,0.814914285 C4.6335764,0.814914285 5.54016494,1.83333333 5.54016494,3.05555556 C5.54016494,4.27777779 4.53294271,5.29619684 3.42508679,5.29619684 C2.21512161,5.29619684 1.30971351,4.27777779 1.30971353,3.05555556 C1.20878473,1.83213977 2.21600695,0.814914285 3.42508679,0.814914285 Z" ></path>
                                <path d="M0,7.74064128 C0,6.62046983 0.906588542,5.60175238 2.01473957,5.60175238 L4.53294271,5.60175238 C4.7345052,5.60175238 4.8351389,5.60175238 5.03670138,5.70380316 C4.70537904,6.25650778 4.53108062,6.89083352 4.53294271,7.5371365 L4.53294271,10.0833333 C4.53294271,11 4.93577258,11.8140191 5.54016494,12.5277778 L5.54016494,17.518419 L4.02947916,17.518419 L3.42508679,14.2593587 L2.82039931,17.518419 L1.10874127,17.518419 L1.10874127,11.9166667 C0.503758672,11.6111111 0,10.8982476 0,10.0833333 L0,7.74064128 Z"></path>
                                <path d="M9.26656257,0 C10.575981,0 11.5834983,1.12046983 11.5834983,2.44444444 C11.5834983,3.76841905 10.5768663,4.88888889 9.26656257,4.88888889 C7.95625882,4.88888889 6.94962681,3.76841907 6.94962681,2.44444444 C6.84958335,1.12046983 7.9577344,0 9.26656257,0 Z M5.54016494,7.5371365 C5.54016494,6.3137207 6.54768228,5.29619684 7.75646701,5.29619684 L10.4765278,5.29619684 C11.6864929,5.29619684 12.6925347,6.31491429 12.6925347,7.5371365 L12.6925347,10.0833333 C12.6925347,11 12.188776,11.7131619 11.4825695,12.1204698 L11.4825695,18.2318793 L9.87184028,18.2318793 L9.16651911,14.6669651 L8.56212675,18.3333333 L6.74894967,18.3333333 L6.74894967,12.2222222 C6.04392361,11.8149143 5.5389845,11.1020508 5.5389845,10.1850857 L5.54016494,7.5371365 Z"></path>

</svg>