<?xml version="1.0" encoding="UTF-8"?>
<svg width="22px" height="22px" viewBox="0 0 22 22" version="1.1" xmlns="http://www.w3.org/2000/svg" xmlns:xlink="http://www.w3.org/1999/xlink">
                    <path d="M9.21301082,0.336513047 L14.813217,3.61754039 C15.5483221,4.0482209 16,4.83633709 16,5.68831426 L16,12.3116857 C16,13.1636629 15.5483221,13.9517791 14.813217,14.3824596 L9.21301082,17.663487 C8.46374038,18.1024666 7.53578064,18.1024543 6.78652184,17.6634548 L1.18672806,14.3824697 C0.451654051,13.9517812 -3.3975488e-16,13.1636825 0,12.311728 L0,5.688272 C-9.9251275e-16,4.83631754 0.451654051,4.04821881 1.18672806,3.6175303 L6.78652184,0.336545207 C7.53578064,-0.102454346 8.46374038,-0.102466645 9.21301082,0.336513047 Z M12.2602328,5.43579113 L7.99829834,7.86817619 L3.73976724,5.43579113 L2.78586405,7.15622251 L7.02686405,9.57779113 L7.02737853,13.9338439 L8.97213529,13.9338439 L8.97186405,9.57579113 L13.2131636,7.15622251 L12.2602328,5.43579113 Z"></path>
</svg>