<svg width="22px" height="22px" viewBox="0 0 20 20" version="1.1" xmlns="http://www.w3.org/2000/svg" xmlns:xlink="http://www.w3.org/1999/xlink">
      <path d="M15.0913109,2.5 C15.6241058,2.5 16.0838375,2.87374348 16.1926148,3.39531602 L19.4773781,19.145316 C19.6042291,19.7535494 19.2139916,20.3494529 18.6057582,20.4763039 C18.5302123,20.4920595 18.4532457,20.5 18.3760742,20.5 L3.625,20.5 C3.00367966,20.5 2.5,19.9963203 2.5,19.375 C2.5,19.2978286 2.50794052,19.220862 2.52369611,19.145316 L5.80845949,3.39531602 C5.91723678,2.87374348 6.37696848,2.5 6.90976338,2.5 L15.0913109,2.5 Z M9.7592094,13.1428572 C8.71921268,13.1428572 7.70128315,13.6633595 6.70902975,14.7129941 C6.51486374,14.9141141 6.4399614,15.2100886 6.51503679,15.4860403 C6.58930759,15.7590347 6.79798521,15.9674642 7.05910918,16.0343422 C7.31743209,16.1005027 7.59084875,16.0189062 7.7809782,15.8138924 C8.47023439,15.0872885 9.12330803,14.7142857 9.7592094,14.7142857 C10.0013017,14.7142857 10.1715405,14.7944796 10.4110481,15.0011796 L10.8291534,15.3841774 C11.3955973,15.8876917 11.7743595,16.0475714 12.3745067,16.0475714 C13.3445503,16.0475714 14.3130606,15.5312589 15.3008706,14.4787667 C15.491035,14.2760582 15.5622559,13.98139 15.485652,13.7078643 C15.4098869,13.4373333 15.2019565,13.2314057 14.9425434,13.1652138 C14.685895,13.0997273 14.4143422,13.1800145 14.2282557,13.3783761 C13.5545308,14.0971798 12.935533,14.4761429 12.3745067,14.4761428 C12.1666811,14.4761428 12.0446744,14.4044137 11.8329906,14.2168229 L11.6126618,14.0110214 C10.9024714,13.347318 10.4787126,13.1428572 9.7592094,13.1428572 Z M9.7592094,8.14285715 C8.71921268,8.14285715 7.70128315,8.66335948 6.70902975,9.71299408 C6.51486374,9.91411413 6.4399614,10.2100886 6.51503679,10.4860403 C6.58930759,10.7590347 6.79798521,10.9674642 7.05910918,11.0343422 C7.31743209,11.1005027 7.59084875,11.0189062 7.7809782,10.8138924 C8.47023439,10.0872885 9.12330803,9.71428572 9.7592094,9.71428572 C10.0013017,9.71428572 10.1715405,9.79447956 10.4110481,10.0011796 L10.8291534,10.3841774 C11.3955973,10.8876917 11.7743595,11.0475714 12.3745067,11.0475714 C13.3445503,11.0475714 14.3130606,10.5312589 15.3008706,9.47876674 C15.491035,9.27605821 15.5622559,8.98138998 15.485652,8.70786434 C15.4098869,8.43733331 15.2019565,8.23140571 14.9425434,8.16521379 C14.685895,8.09972733 14.4143422,8.18001449 14.2282557,8.37837613 C13.5545308,9.09717975 12.935533,9.47614288 12.3745067,9.47614285 C12.1666811,9.47614285 12.0446744,9.40441369 11.8329906,9.21682286 L11.6126618,9.01102142 C10.9024714,8.34731796 10.4787126,8.14285715 9.7592094,8.14285715 Z"></path>
</svg>