<svg t="1721634015202" class="icon" viewBox="0 0 1024 1024" version="1.1" xmlns="http://www.w3.org/2000/svg" p-id="34254" width="32" height="32"><path d="M416 896H117.333333a32 32 0 0 1-32-32v-704a32 32 0 0 1 32-32h618.666667a32 32 0 0 1 32 32V416a32 32 0 1 1-64 0v-224H149.333333v640h266.666667a32 32 0 1 1 0 64z" p-id="34255" ></path><path d="M544 362.666667H266.666667a32 32 0 1 1 0-64h277.333333a32 32 0 1 1 0 64zM544 533.333333H266.666667a32 32 0 1 1 0-64h277.333333a32 32 0 1 1 0 64zM458.666667 725.333333H266.666667a32 32 0 1 1 0-64h192a32 32 0 1 1 0 64zM869.365333 896H581.301333c-25.045333 0-47.466667-13.077333-59.968-34.954667a70.56 70.56 0 0 1 0.458667-70.677333l0.010667-0.010667L665.834667 546.133333c12.608-21.376 34.848-34.133333 59.488-34.133333H725.333333c24.650667 0 46.890667 12.757333 59.509334 34.133333l144.021333 244.224a70.528 70.528 0 0 1 0.469333 70.677334c-12.501333 21.888-34.922667 34.965333-59.968 34.965333z m-292.426666-73.130667a6.122667 6.122667 0 0 0-0.042667 6.432c1.546667 2.698667 3.701333 2.698667 4.405333 2.698667h288.064c0.704 0 2.858667 0 4.405334-2.709333a6.101333 6.101333 0 0 0-0.042667-6.432l-144.010667-244.224c-0.384-0.629333-1.568-2.634667-4.384-2.634667s-3.989333 2.005333-4.373333 2.656L576.938667 822.869333z" p-id="34256" ></path><path d="M702.933333 756.266667c-6.4 6.4-9.6 12.8-9.6 22.4s3.2 16 9.6 22.4 12.8 9.6 22.4 9.6 16-3.2 22.4-9.6 9.6-16 9.6-22.4-3.2-16-9.6-22.4c-12.8-12.8-32-12.8-44.8 0zM725.333333 725.333333a32 32 0 0 1-32-32v-21.333333a32 32 0 1 1 64 0v21.333333a32 32 0 0 1-32 32z" p-id="34257" ></path></svg>