<svg t="1721633220467" class="icon" viewBox="0 0 1489 1024" version="1.1" xmlns="http://www.w3.org/2000/svg" p-id="13857" width="32" height="32"><path d="M1073.03352646 962a166.18712607 166.18712607 0 0 0-312.95285859-96.6964333 163.45549951 163.45549951 0 0 0-287.46820107-8.43172647 128.18119658 128.18119658 0 0 0-233.07250958 105.12815977z"  p-id="13858"></path><path d="M1214.74653945 753.93845528a166.18712607 166.18712607 0 0 0-312.95285859-96.6964333 163.45549951 163.45549951 0 0 0-287.45241153-8.38435782 128.18119658 128.18119658 0 0 0-233.0883 105.14395019z"  p-id="13859"></path><path d="M1368.50713174 545.8927001a166.18712607 166.18712607 0 0 0-312.95285859-96.6964333 163.45549951 163.45549951 0 0 0-287.46820108-8.43172735 128.18119658 128.18119658 0 0 0-233.0883 105.1439502z"  p-id="13860"></path><path d="M301.78315391 259.00871943h-123.94954248a7.53960586 7.53960586 0 0 1 0-15.07921172h123.94954248a7.53960586 7.53960586 0 0 1 0 15.07921172zM301.78315391 436.32761943h-123.94954248a7.53960586 7.53960586 0 0 1 0-15.07921172h123.94954248a7.53960586 7.53960586 0 1 1 0 15.07921172zM261.1245456 294.47249961H177.83361143a7.53960586 7.53960586 0 0 1 0-15.07921172h83.29093417a7.53960586 7.53960586 0 1 1 0 15.07921172zM261.1245456 329.9046998H177.83361143a7.53960586 7.53960586 0 0 1 0-15.07921171h83.29093417a7.53960586 7.53960586 0 1 1 0 15.07921172zM261.1245456 365.40005996H177.83361143a7.53960586 7.53960586 0 0 1 0-15.07921259h83.29093417a7.53960586 7.53960586 0 1 1 0 15.0792126zM261.1245456 400.86384013H177.83361143a7.53960586 7.53960586 0 0 1 0-15.07921259h83.29093417a7.53960586 7.53960586 0 1 1 0 15.07921259zM115.76410156 852.00859707a7.53171065 7.53171065 0 0 1-7.53171152-7.53171152V123.29581221L75.78445273 171.18612617a7.53644795 7.53644795 0 1 1-12.47390331-8.46330644l46.23239003-68.21172335a7.53171065 7.53171065 0 0 1 13.78445186 4.23165323v745.73413594a7.53171065 7.53171065 0 0 1-7.56328975 7.53171152z"  p-id="13861"></path><path d="M162.75439883 171.59665977a7.53171065 7.53171065 0 0 1-6.12642305-3.15795059L109.63767763 103.11651055a7.53960586 7.53960586 0 0 1 12.23705743-8.81068096l46.99029726 65.32219864a7.53171065 7.53171065 0 0 1-6.11063349 11.93705156zM1067.94922695 959.91575292a7.53171065 7.53171065 0 0 1-7.40539247-6.17379257c-13.70550322-74.70131045-77.18030156-128.92331425-150.93422755-128.92331426-61.21686357 0-116.54415 37.48486817-140.93931445 95.51220206a7.53171065 7.53171065 0 0 1-13.89498047 0c-24.41095489-58.02733388-79.72245088-95.51220205-140.93931445-95.51220206s-116.54415 37.48486817-140.93931534 95.51220206a7.53171065 7.53171065 0 0 1-13.89498047 0c-24.41095489-58.02733388-79.72245088-95.51220205-140.93931445-95.51220206-72.63285292 0-135.93396357 53.24303935-150.49211396 126.61801084a7.54118526 7.54118526 0 1 1-14.79499629-2.93689336c15.94764844-80.40141036 85.45413076-138.7603292 165.27131983-138.76032919 61.99056123 0 118.42313027 34.87955888 147.88680556 90.12789668 29.43209531-55.26412734 85.89624346-90.12789668 147.88680469-90.12789669s118.42313027 34.87955888 147.88680556 90.12789669c29.43209531-55.26412734 85.89624346-90.12789668 147.88680469-90.12789669 81.03300029 0 150.74475029 59.41683193 165.79238203 141.27089941a7.53171065 7.53171065 0 0 1-7.4211829 8.90541915zM1209.56750088 753.4647626a7.53171065 7.53171065 0 0 1-7.40539248-6.17379258c-13.65813458-74.74867998-77.18030156-128.92331425-150.93422754-128.92331426-61.21686357 0-116.54415 37.48486817-140.93931445 95.51220205a7.53171065 7.53171065 0 0 1-13.89498047 0c-24.41095489-58.02733388-79.72245088-95.51220205-140.93931446-95.51220205s-116.54415 37.48486817-140.93931533 95.51220205a7.53171065 7.53171065 0 0 1-13.89498047 0c-24.41095489-58.02733388-79.72245088-95.51220205-140.93931445-95.51220205-72.63285292 0-135.93396357 53.24303935-150.49211396 126.61801085a7.54118526 7.54118526 0 1 1-14.7949963-2.93689424c15.94764844-80.40141036 85.45413076-138.7603292 165.27132071-138.76032833 61.99056123 0 118.42313027 34.87955888 147.88680469 90.12789669 29.43209531-55.26412734 85.89624346-90.12789668 147.88680469-90.12789669s118.42313027 34.87955888 147.88680556 90.12789669c29.43209531-55.26412734 85.89624346-90.12789668 147.88680469-90.12789669 81.03300029 0 150.74475029 59.41683193 165.79238203 141.27089942a7.53171065 7.53171065 0 0 1-7.42118203 8.90541914zM1363.23335498 547.04535136a7.53171065 7.53171065 0 0 1-7.35802383-6.18958212c-13.75287276-74.70131045-77.22767109-128.84436562-150.96580664-128.84436562-61.21686357 0-116.54415 37.48486817-140.93931445 95.51220204a7.53171065 7.53171065 0 0 1-13.89498047 0c-24.41095489-58.09049297-79.73824131-95.51220205-140.95510488-95.51220204s-116.54415 37.48486817-140.93931445 95.51220204a7.54750107 7.54750107 0 0 1-13.89498047 0c-24.41095489-58.09049297-79.73824131-95.51220205-140.93931534-95.51220204-72.63285292 0-135.93396357 53.24303935-150.49211309 126.61801083a7.54118526 7.54118526 0 1 1-14.79499716-2.93689336c15.94764844-80.40141036 85.46992031-138.7603292 165.2713207-138.76032919 61.99056123 0 118.42313027 34.87955888 147.88680557 90.12789667 29.43209531-55.26412734 85.89624346-90.12789668 147.88680469-90.12789667s118.42313027 34.87955888 147.88680468 90.12789667c29.43209531-55.26412734 85.89624346-90.12789668 147.88680557-90.12789667 81.03300029 0 150.74475029 59.41683193 165.79238203 141.27089941a7.53171065 7.53171065 0 0 1-7.42118291 8.90541914z"  p-id="13862"></path><path d="M700.60067685 66.736925a2.3684625 2.3684625 0 0 0 0-4.736925 2.3684625 2.3684625 0 0 0 0 4.736925z"  p-id="13863"></path><path d="M457.4385169 688.58467666c9.14226592 0 9.15805547-14.21077588 0-14.210775s-9.15805547 14.21077588 0 14.210775zM754.91741972 740.84875156c9.14226592 0 9.15805547-14.21077588 0-14.21077588s-9.15805547 14.21077588 0 14.21077588zM1108.70257344 686.57937822c9.14226592 0 9.15805547-14.21077588 0-14.21077499s-9.15805547 14.21077588 0 14.210775zM849.38749825 913.73073242c9.14226592 0 9.15805547-14.21077588 0-14.21077588s-9.15805547 14.21077588 0 14.21077588zM594.09880859 885.57760654c9.14226592 0 9.15805547-14.21077588 0-14.21077588s-9.15805547 14.21077588 0 14.21077588zM280.59330869 941.86806787c9.14226592 0 9.15805547-14.21077588 0-14.21077587s-9.15805547 14.21077588 0 14.21077587zM933.81529502 477.52307949c9.14226592 0 9.15805547-14.21077588 0-14.21077587s-9.15805547 14.21077588 0 14.21077587zM1249.40504199 529.7871544c9.14226592 0 9.15805547-14.21077588 0-14.21077588s-9.15805547 14.21077588 0 14.21077588zM694.60057198 519.7290831c9.14226592 0 9.15805547-14.21077588-1e-8-14.21077587s-9.15805547 14.21077588 0 14.21077587z"  p-id="13864"></path><path d="M678.49502627 499.28135557c6.09484395 0 6.11063349-9.47385 0-9.47385s-6.11063349 9.47385 0 9.47385zM734.8170667 716.37463848c6.09484395 0 6.11063349-9.47385 0-9.47385088s-6.11063349 9.47385 0 9.47385088zM863.45616552 897.27781221c6.09484395 0 6.11063349-9.47385 0-9.47385088s-6.11063349 9.47385 0 9.47385088zM578.02484287 897.27781221c6.09484395 0 6.11063349-9.47385 0-9.47385088s-6.11063349 9.47385 0 9.47385088zM1018.2430918 660.08417714c6.09484395 0 6.11063349-9.47385 0-9.47385087s-6.11063349 9.47385 0 9.47385087zM1285.59515117 517.3606206c6.09484395 0 6.11063349-9.47385 0-9.47385088s-6.11063349 9.47385 0 9.47385088zM314.68338037 915.37286592c6.09484395 0 6.11063349-9.47385 0-9.47385s-6.11063349 9.47385 0 9.47385z" p-id="13865"></path></svg>