<svg t="1721633846800" class="icon" viewBox="0 0 1024 1024" version="1.1" xmlns="http://www.w3.org/2000/svg" p-id="29757" width="32" height="32"><path d="M511.901557 296.312248c178.574889 0 323.285522 144.710633 323.285522 323.285522v215.589309H188.616035V619.59777c0-178.574889 144.710633-323.285522 323.285522-323.285522zM511.901557 0c29.729667 0 53.946549 24.216881 53.946549 53.946549v107.696212c0 29.729667-24.216881 53.946549-53.946549 53.946549s-53.946549-24.216881-53.946548-53.946549V53.946549C457.955009 24.216881 482.17189 0 511.901557 0z m438.266488 181.528168a53.828418 53.828418 0 0 1 0 76.194578l-76.194578 76.194578a53.828418 53.828418 0 0 1-76.194578 0 53.828418 53.828418 0 0 1 0-76.194578l76.194578-76.194578a53.828418 53.828418 0 0 1 76.194578 0z m-876.532975 0a53.828418 53.828418 0 0 1 76.194578 0l76.194578 76.194578a53.828418 53.828418 0 0 1 0 76.194578 53.828418 53.828418 0 0 1-76.194578 0l-76.194578-76.194578a53.828418 53.828418 0 0 1 0-76.194578zM53.749664 916.106903h916.106902c29.729667 0 53.946549 24.019996 53.946549 53.946548s-24.019996 53.946549-53.946549 53.946549H53.946549C24.216881 1024 0 999.980004 0 970.053451s24.019996-53.946549 53.946549-53.946548zM454.804845 535.527783c-10.434916-10.434916-27.56393-10.631802-37.998846 0l-114.39031 114.39031c-10.434916 10.434916-10.434916 27.56393 0 38.195731s27.56393 10.434916 38.195732 0l95.292444-95.292443 95.292443 95.292443c10.434916 10.434916 27.56393 10.434916 38.195732 0l152.389156-152.389156c10.434916-10.434916 10.434916-27.56393 0-38.195731-10.434916-10.434916-27.56393-10.434916-38.195732 0l-133.29129 133.29129-95.292444-95.292444z"  p-id="29758"></path></svg>